<svg xmlns="http://www.w3.org/2000/svg" xmlns:xlink="http://www.w3.org/1999/xlink" width="405" zoomAndPan="magnify" viewBox="0 0 303.75 72.749999" height="97" preserveAspectRatio="xMidYMid meet" version="1.0"><defs><filter x="0%" y="0%" width="100%" height="100%" id="c6bb0d731d"><feColorMatrix values="0 0 0 0 1 0 0 0 0 1 0 0 0 0 1 0 0 0 1 0" color-interpolation-filters="sRGB"/></filter><g/><clipPath id="2532f73d26"><path d="M 18.359375 19.070312 L 72.464844 19.070312 L 72.464844 62.625 L 18.359375 62.625 Z M 18.359375 19.070312 " clip-rule="nonzero"/></clipPath><clipPath id="2a6f751b8f"><path d="M 38.3125 19.070312 L 66.917969 19.070312 C 68.648438 19.070312 70.277344 19.902344 71.289062 21.308594 C 72.300781 22.710938 72.578125 24.515625 72.027344 26.160156 L 62.238281 55.535156 C 60.828125 59.769531 56.863281 62.625 52.398438 62.625 L 23.792969 62.625 C 22.0625 62.625 20.433594 61.792969 19.421875 60.386719 C 18.410156 58.984375 18.132812 57.175781 18.683594 55.535156 L 28.472656 26.160156 C 29.882812 21.925781 33.847656 19.070312 38.3125 19.070312 Z M 38.3125 19.070312 " clip-rule="nonzero"/></clipPath><mask id="f9354e3380"><g filter="url(#c6bb0d731d)"><rect x="-30.375" width="364.5" fill="#000000" y="-7.275" height="87.299999" fill-opacity="0.8"/></g></mask><clipPath id="6bd0809328"><path d="M 2.390625 0.0507812 L 56.496094 0.0507812 L 56.496094 43.609375 L 2.390625 43.609375 Z M 2.390625 0.0507812 " clip-rule="nonzero"/></clipPath><clipPath id="fcb10ba3b9"><path d="M 22.34375 0.0507812 L 50.949219 0.0507812 C 52.683594 0.0507812 54.308594 0.886719 55.320312 2.289062 C 56.332031 3.695312 56.609375 5.5 56.0625 7.144531 L 46.269531 36.519531 C 44.859375 40.753906 40.894531 43.609375 36.433594 43.609375 L 7.824219 43.609375 C 6.09375 43.609375 4.46875 42.777344 3.453125 41.371094 C 2.441406 39.964844 2.167969 38.160156 2.714844 36.519531 L 12.503906 7.144531 C 13.917969 2.910156 17.878906 0.0507812 22.34375 0.0507812 Z M 22.34375 0.0507812 " clip-rule="nonzero"/></clipPath><clipPath id="f2939db272"><rect x="0" width="59" y="0" height="44"/></clipPath><clipPath id="86440037aa"><path d="M 0.394531 1 L 59 1 L 59 46 L 0.394531 46 Z M 0.394531 1 " clip-rule="nonzero"/></clipPath><mask id="c1819397b9"><g filter="url(#c6bb0d731d)"><rect x="-30.375" width="364.5" fill="#000000" y="-7.275" height="87.299999" fill-opacity="0.8"/></g></mask><clipPath id="abba2f710e"><path d="M 2.4375 0.582031 L 56.542969 0.582031 L 56.542969 44.136719 L 2.4375 44.136719 Z M 2.4375 0.582031 " clip-rule="nonzero"/></clipPath><clipPath id="dcc247b48c"><path d="M 22.386719 0.582031 L 50.996094 0.582031 C 52.726562 0.582031 54.355469 1.414062 55.367188 2.816406 C 56.378906 4.222656 56.65625 6.027344 56.105469 7.671875 L 46.316406 37.046875 C 44.902344 41.28125 40.941406 44.136719 36.476562 44.136719 L 7.871094 44.136719 C 6.136719 44.136719 4.511719 43.304688 3.5 41.898438 C 2.488281 40.496094 2.210938 38.6875 2.757812 37.046875 L 12.550781 7.671875 C 13.960938 3.4375 17.925781 0.582031 22.386719 0.582031 Z M 22.386719 0.582031 " clip-rule="nonzero"/></clipPath><clipPath id="9ff9cda7b9"><rect x="0" width="59" y="0" height="45"/></clipPath></defs><g fill="#007050" fill-opacity="1"><g transform="translate(82.47489, 50.354498)"><g><path d="M 9.328125 -23.234375 L 0.15625 -23.234375 L 0.15625 -28.640625 L 25.109375 -28.640625 L 25.109375 -23.234375 L 15.953125 -23.234375 L 15.953125 0 L 9.328125 0 Z M 9.328125 -23.234375 "/></g></g></g><g fill="#007050" fill-opacity="1"><g transform="translate(108.363694, 50.354498)"><g><path d="M 16.328125 -22.328125 C 19.046875 -22.328125 21.242188 -21.507812 22.921875 -19.875 C 24.597656 -18.238281 25.4375 -15.8125 25.4375 -12.59375 L 25.4375 0 L 19.0625 0 L 19.0625 -11.625 C 19.0625 -13.363281 18.675781 -14.660156 17.90625 -15.515625 C 17.144531 -16.378906 16.046875 -16.8125 14.609375 -16.8125 C 12.992188 -16.8125 11.707031 -16.3125 10.75 -15.3125 C 9.800781 -14.320312 9.328125 -12.84375 9.328125 -10.875 L 9.328125 0 L 2.9375 0 L 2.9375 -30.359375 L 9.328125 -30.359375 L 9.328125 -19.71875 C 10.171875 -20.5625 11.191406 -21.207031 12.390625 -21.65625 C 13.585938 -22.101562 14.898438 -22.328125 16.328125 -22.328125 Z M 16.328125 -22.328125 "/></g></g></g><g fill="#007050" fill-opacity="1"><g transform="translate(137.238083, 50.354498)"><g><path d="M 9.046875 -19.109375 C 9.804688 -20.171875 10.832031 -20.972656 12.125 -21.515625 C 13.425781 -22.054688 14.921875 -22.328125 16.609375 -22.328125 L 16.609375 -16.4375 C 15.898438 -16.5 15.421875 -16.53125 15.171875 -16.53125 C 13.347656 -16.53125 11.914062 -16.015625 10.875 -14.984375 C 9.84375 -13.960938 9.328125 -12.429688 9.328125 -10.390625 L 9.328125 0 L 2.9375 0 L 2.9375 -22 L 9.046875 -22 Z M 9.046875 -19.109375 "/></g></g></g><g fill="#007050" fill-opacity="1"><g transform="translate(155.478863, 50.354498)"><g><path d="M 2.9375 -22 L 9.328125 -22 L 9.328125 0 L 2.9375 0 Z M 6.140625 -25.078125 C 4.960938 -25.078125 4.003906 -25.414062 3.265625 -26.09375 C 2.535156 -26.78125 2.171875 -27.628906 2.171875 -28.640625 C 2.171875 -29.640625 2.535156 -30.476562 3.265625 -31.15625 C 4.003906 -31.84375 4.960938 -32.1875 6.140625 -32.1875 C 7.304688 -32.1875 8.257812 -31.859375 9 -31.203125 C 9.738281 -30.554688 10.109375 -29.738281 10.109375 -28.75 C 10.109375 -27.6875 9.738281 -26.804688 9 -26.109375 C 8.257812 -25.421875 7.304688 -25.078125 6.140625 -25.078125 Z M 6.140625 -25.078125 "/></g></g></g><g fill="#007050" fill-opacity="1"><g transform="translate(168.402838, 50.354498)"><g><path d="M 25.359375 -30.359375 L 25.359375 0 L 19.265625 0 L 19.265625 -2.53125 C 17.679688 -0.625 15.390625 0.328125 12.390625 0.328125 C 10.316406 0.328125 8.441406 -0.132812 6.765625 -1.0625 C 5.085938 -1.988281 3.769531 -3.3125 2.8125 -5.03125 C 1.863281 -6.75 1.390625 -8.738281 1.390625 -11 C 1.390625 -13.269531 1.863281 -15.257812 2.8125 -16.96875 C 3.769531 -18.6875 5.085938 -20.007812 6.765625 -20.9375 C 8.441406 -21.863281 10.316406 -22.328125 12.390625 -22.328125 C 15.203125 -22.328125 17.398438 -21.441406 18.984375 -19.671875 L 18.984375 -30.359375 Z M 13.5 -4.90625 C 15.101562 -4.90625 16.4375 -5.457031 17.5 -6.5625 C 18.570312 -7.664062 19.109375 -9.144531 19.109375 -11 C 19.109375 -12.851562 18.570312 -14.332031 17.5 -15.4375 C 16.4375 -16.539062 15.101562 -17.09375 13.5 -17.09375 C 11.863281 -17.09375 10.515625 -16.539062 9.453125 -15.4375 C 8.390625 -14.332031 7.859375 -12.851562 7.859375 -11 C 7.859375 -9.144531 8.390625 -7.664062 9.453125 -6.5625 C 10.515625 -5.457031 11.863281 -4.90625 13.5 -4.90625 Z M 13.5 -4.90625 "/></g></g></g><g fill="#007050" fill-opacity="1"><g transform="translate(197.318126, 50.354498)"><g><path d="M 2.9375 -22 L 9.328125 -22 L 9.328125 0 L 2.9375 0 Z M 6.140625 -25.078125 C 4.960938 -25.078125 4.003906 -25.414062 3.265625 -26.09375 C 2.535156 -26.78125 2.171875 -27.628906 2.171875 -28.640625 C 2.171875 -29.640625 2.535156 -30.476562 3.265625 -31.15625 C 4.003906 -31.84375 4.960938 -32.1875 6.140625 -32.1875 C 7.304688 -32.1875 8.257812 -31.859375 9 -31.203125 C 9.738281 -30.554688 10.109375 -29.738281 10.109375 -28.75 C 10.109375 -27.6875 9.738281 -26.804688 9 -26.109375 C 8.257812 -25.421875 7.304688 -25.078125 6.140625 -25.078125 Z M 6.140625 -25.078125 "/></g></g></g><g fill="#007050" fill-opacity="1"><g transform="translate(210.242101, 50.354498)"><g><path d="M 9.9375 -21.515625 L 15.578125 -21.515625 L 15.578125 -16.609375 L 10.109375 -16.609375 L 10.109375 0 L 3.71875 0 L 3.71875 -16.609375 L 0.328125 -16.609375 L 0.328125 -21.515625 L 3.71875 -21.515625 L 3.71875 -22.5 C 3.71875 -25.007812 4.460938 -27 5.953125 -28.46875 C 7.441406 -29.9375 9.535156 -30.671875 12.234375 -30.671875 C 13.179688 -30.671875 14.082031 -30.566406 14.9375 -30.359375 C 15.800781 -30.160156 16.519531 -29.875 17.09375 -29.5 L 15.421875 -24.875 C 14.679688 -25.382812 13.820312 -25.640625 12.84375 -25.640625 C 10.90625 -25.640625 9.9375 -24.578125 9.9375 -22.453125 Z M 9.9375 -21.515625 "/></g></g></g><g fill="#007050" fill-opacity="1"><g transform="translate(226.683347, 50.354498)"><g><path d="M 24.796875 -22 L 14.84375 1.34375 C 13.832031 3.882812 12.582031 5.671875 11.09375 6.703125 C 9.613281 7.742188 7.828125 8.265625 5.734375 8.265625 C 4.585938 8.265625 3.453125 8.085938 2.328125 7.734375 C 1.210938 7.378906 0.300781 6.890625 -0.40625 6.265625 L 1.921875 1.71875 C 2.410156 2.15625 2.972656 2.492188 3.609375 2.734375 C 4.253906 2.984375 4.890625 3.109375 5.515625 3.109375 C 6.390625 3.109375 7.097656 2.894531 7.640625 2.46875 C 8.191406 2.050781 8.6875 1.351562 9.125 0.375 L 9.203125 0.15625 L -0.328125 -22 L 6.265625 -22 L 12.4375 -7.078125 L 18.65625 -22 Z M 24.796875 -22 "/></g></g></g><g clip-path="url(#2532f73d26)"><g clip-path="url(#2a6f751b8f)"><path fill="#febfcc" d="M 16.316406 19.070312 L 74.335938 19.070312 L 74.335938 62.625 L 16.316406 62.625 Z M 16.316406 19.070312 " fill-opacity="1" fill-rule="nonzero"/></g></g><g mask="url(#f9354e3380)"><g transform="matrix(1, 0, 0, 1, 8, 11)"><g clip-path="url(#f2939db272)"><g clip-path="url(#6bd0809328)"><g clip-path="url(#fcb10ba3b9)"><path fill="#007050" d="M 0.351562 0.0507812 L 58.367188 0.0507812 L 58.367188 43.609375 L 0.351562 43.609375 Z M 0.351562 0.0507812 " fill-opacity="1" fill-rule="nonzero"/></g></g></g></g></g><g clip-path="url(#86440037aa)"><g mask="url(#c1819397b9)"><g transform="matrix(1, 0, 0, 1, 0, 1)"><g clip-path="url(#9ff9cda7b9)"><g clip-path="url(#abba2f710e)"><g clip-path="url(#dcc247b48c)"><path fill="#fdbfcc" d="M 0.394531 0.582031 L 58.414062 0.582031 L 58.414062 44.136719 L 0.394531 44.136719 Z M 0.394531 0.582031 " fill-opacity="1" fill-rule="nonzero"/></g></g></g></g></g></g></svg>